<?xml version="1.0" encoding="UTF-8"?>
<svg xmlns="http://www.w3.org/2000/svg" xmlns:xlink="http://www.w3.org/1999/xlink" width="680" height="160" viewBox="100 205 720 165">
<path fill-rule="nonzero" fill="#41ae8a" fill-opacity="1" d="M 214.179688 309.863281 C 212.640625 309.863281 211.390625 308.609375 211.390625 307.070312 C 211.390625 305.535156 212.640625 304.285156 214.179688 304.285156 C 215.714844 304.285156 216.96875 305.535156 216.96875 307.070312 C 216.96875 308.609375 215.714844 309.863281 214.179688 309.863281 M 188.308594 284.371094 C 186.773438 284.371094 185.519531 283.121094 185.519531 281.582031 C 185.519531 280.046875 186.773438 278.792969 188.308594 278.792969 C 189.847656 278.792969 191.097656 280.046875 191.097656 281.582031 C 191.097656 283.121094 189.847656 284.371094 188.308594 284.371094 M 248.152344 278.46875 C 248.152344 261.300781 234.183594 247.332031 217.011719 247.332031 C 207.3125 247.332031 198.632812 251.789062 192.917969 258.765625 C 192.695312 258.488281 192.472656 258.210938 192.242188 257.941406 C 189.398438 254.625 186.023438 251.820312 182.210938 249.609375 C 173.613281 244.617188 163.546875 243.101562 153.867188 245.339844 C 144.230469 247.5625 135.882812 253.289062 130.359375 261.457031 C 130.34375 261.476562 130.332031 261.503906 130.3125 261.527344 C 127.488281 261.28125 124.605469 261.503906 121.789062 262.222656 C 108.132812 265.714844 99.867188 279.667969 103.359375 293.324219 C 106.066406 303.914062 115.203125 311.613281 126.09375 312.480469 L 126.429688 308.269531 C 117.339844 307.546875 109.710938 301.121094 107.449219 292.277344 C 104.535156 280.878906 111.433594 269.230469 122.835938 266.3125 C 129.527344 264.601562 136.671875 266.25 141.945312 270.726562 L 144.679688 267.507812 C 141.800781 265.0625 138.457031 263.328125 134.910156 262.351562 C 145.390625 248.46875 164.875 244.425781 180.09375 253.261719 C 183.492188 255.234375 186.503906 257.734375 189.035156 260.691406 C 189.5 261.230469 189.941406 261.792969 190.371094 262.363281 C 188.039062 266.207031 186.53125 270.601562 186.050781 275.296875 C 183.476562 276.226562 181.621094 278.6875 181.621094 281.582031 C 181.621094 285.269531 184.621094 288.269531 188.308594 288.269531 C 191.996094 288.269531 194.996094 285.269531 194.996094 281.582031 C 194.996094 278.589844 193.019531 276.050781 190.300781 275.199219 C 191.921875 261.894531 203.277344 251.554688 217.011719 251.554688 C 231.855469 251.554688 243.929688 263.628906 243.929688 278.46875 C 243.929688 292.101562 233.738281 303.390625 220.578125 305.140625 C 219.746094 302.390625 217.195312 300.386719 214.179688 300.386719 C 210.492188 300.386719 207.492188 303.386719 207.492188 307.070312 C 207.492188 310.757812 210.492188 313.757812 214.179688 313.757812 C 217.039062 313.757812 219.480469 311.949219 220.433594 309.414062 C 236 307.707031 248.152344 294.484375 248.152344 278.46875 "/>
<path fill-rule="nonzero" fill="#ffffff" fill-opacity="1" d="M 214.980469 284.832031 C 213.445312 284.832031 212.195312 283.578125 212.195312 282.042969 C 212.195312 280.503906 213.445312 279.253906 214.980469 279.253906 C 216.519531 279.253906 217.769531 280.503906 217.769531 282.042969 C 217.769531 283.578125 216.519531 284.832031 214.980469 284.832031 M 221.5625 280.894531 C 221.015625 277.753906 218.277344 275.355469 214.980469 275.355469 C 211.292969 275.355469 208.296875 278.355469 208.296875 282.042969 C 208.296875 285.730469 211.292969 288.730469 214.980469 288.730469 C 217.5625 288.730469 219.796875 287.261719 220.914062 285.117188 C 231.699219 288.628906 239.515625 298.777344 239.515625 310.714844 C 239.515625 324.746094 228.566406 336.539062 214.59375 337.558594 C 214.183594 337.589844 213.769531 337.609375 213.363281 337.621094 L 206.941406 337.660156 L 203.917969 340.492188 L 203.917969 336.496094 C 202.691406 335.933594 201.210938 335.167969 199.96875 334.480469 C 199.488281 334.214844 199.046875 333.960938 198.667969 333.738281 C 198.316406 333.523438 197.964844 333.3125 197.628906 333.085938 C 197.550781 333.03125 197.476562 332.976562 197.398438 332.925781 C 197.121094 332.730469 196.851562 332.535156 196.597656 332.34375 C 196.316406 332.132812 196.035156 331.921875 195.761719 331.699219 C 195.503906 331.492188 195.253906 331.285156 195.007812 331.070312 C 194.726562 330.828125 194.453125 330.574219 194.179688 330.316406 C 188.84375 325.28125 185.683594 318.195312 185.683594 310.714844 C 185.683594 293.546875 171.714844 279.578125 154.542969 279.578125 C 137.375 279.578125 123.40625 293.546875 123.40625 310.714844 C 123.40625 327.886719 137.375 341.855469 154.542969 341.855469 L 154.542969 337.632812 C 139.703125 337.632812 127.628906 325.558594 127.628906 310.714844 C 127.628906 295.875 139.703125 283.800781 154.542969 283.800781 C 169.386719 283.800781 181.460938 295.875 181.460938 310.714844 C 181.460938 321.761719 187.398438 332.078125 196.953125 337.644531 C 197.492188 337.957031 198.042969 338.257812 198.585938 338.53125 C 198.632812 338.554688 198.679688 338.578125 198.726562 338.601562 C 198.71875 338.597656 198.703125 338.59375 198.703125 338.59375 C 198.710938 338.597656 198.726562 338.601562 198.738281 338.605469 C 199.054688 338.761719 199.375 338.914062 199.695312 339.0625 L 199.695312 350.222656 L 208.605469 341.886719 L 213.480469 341.84375 C 213.949219 341.828125 214.425781 341.804688 214.898438 341.769531 C 222.726562 341.199219 229.992188 337.714844 235.367188 331.960938 C 240.765625 326.175781 243.738281 318.632812 243.738281 310.714844 C 243.738281 296.660156 234.378906 284.753906 221.5625 280.894531 "/>
<path fill-rule="nonzero" fill="#ffffff" fill-opacity="1" d="M 466.367188 321.5 C 463.003906 321.5 459.898438 320.890625 457.042969 319.671875 C 454.183594 318.457031 451.707031 316.753906 449.605469 314.570312 C 447.507812 312.386719 445.859375 309.824219 444.660156 306.882812 C 443.464844 303.945312 442.867188 300.730469 442.867188 297.246094 C 442.867188 293.757812 443.453125 290.535156 444.628906 287.574219 C 445.804688 284.613281 447.453125 282.050781 449.574219 279.886719 C 451.695312 277.722656 454.175781 276.042969 457.011719 274.847656 C 459.84375 273.652344 462.964844 273.050781 466.367188 273.050781 C 469.726562 273.050781 472.738281 273.617188 475.40625 274.753906 C 478.074219 275.886719 480.332031 277.390625 482.179688 279.257812 C 484.027344 281.128906 485.347656 283.175781 486.148438 285.402344 L 478.460938 289.054688 C 477.582031 286.660156 476.089844 284.695312 473.988281 283.164062 C 471.890625 281.632812 469.347656 280.863281 466.367188 280.863281 C 463.425781 280.863281 460.832031 281.558594 458.585938 282.941406 C 456.339844 284.328125 454.59375 286.242188 453.355469 288.675781 C 452.117188 291.113281 451.496094 293.96875 451.496094 297.246094 C 451.496094 300.519531 452.117188 303.386719 453.355469 305.84375 C 454.59375 308.300781 456.339844 310.222656 458.585938 311.609375 C 460.832031 312.996094 463.425781 313.6875 466.367188 313.6875 C 469.347656 313.6875 471.890625 312.921875 473.988281 311.390625 C 476.089844 309.855469 477.582031 307.914062 478.460938 305.558594 L 486.148438 309.152344 C 485.347656 311.378906 484.027344 313.425781 482.179688 315.292969 C 480.332031 317.164062 478.074219 318.664062 475.40625 319.800781 C 472.738281 320.933594 469.726562 321.5 466.367188 321.5 "/>
<path fill-rule="nonzero" fill="#ffffff" fill-opacity="1" d="M 508.453125 313.941406 C 510.34375 313.941406 511.988281 313.5 513.398438 312.617188 C 514.804688 311.734375 515.917969 310.507812 516.734375 308.929688 C 517.554688 307.355469 517.964844 305.582031 517.964844 303.605469 C 517.964844 301.632812 517.554688 299.871094 516.734375 298.316406 C 515.917969 296.761719 514.804688 295.542969 513.398438 294.660156 C 511.988281 293.777344 510.34375 293.339844 508.453125 293.339844 C 506.601562 293.339844 504.964844 293.777344 503.535156 294.660156 C 502.109375 295.542969 500.984375 296.761719 500.167969 298.316406 C 499.347656 299.871094 498.9375 301.632812 498.9375 303.605469 C 498.9375 305.582031 499.347656 307.355469 500.167969 308.929688 C 500.984375 310.507812 502.109375 311.734375 503.535156 312.617188 C 504.964844 313.5 506.601562 313.941406 508.453125 313.941406 M 508.453125 321.5 C 505.132812 321.5 502.097656 320.722656 499.347656 319.167969 C 496.597656 317.617188 494.402344 315.496094 492.761719 312.808594 C 491.125 310.117188 490.308594 307.050781 490.308594 303.605469 C 490.308594 300.164062 491.125 297.097656 492.761719 294.410156 C 494.402344 291.722656 496.585938 289.601562 499.316406 288.046875 C 502.046875 286.492188 505.089844 285.714844 508.453125 285.714844 C 511.851562 285.714844 514.917969 286.492188 517.648438 288.046875 C 520.378906 289.601562 522.550781 291.710938 524.171875 294.378906 C 525.789062 297.046875 526.59375 300.121094 526.59375 303.605469 C 526.59375 307.050781 525.777344 310.117188 524.140625 312.808594 C 522.5 315.496094 520.316406 317.617188 517.585938 319.167969 C 514.855469 320.722656 511.808594 321.5 508.453125 321.5 "/>
<path fill-rule="nonzero" fill="#ffffff" fill-opacity="1" d="M 618.578125 293.84375 C 619.917969 292.960938 621.453125 292.519531 623.175781 292.519531 C 624.980469 292.519531 626.523438 292.960938 627.804688 293.84375 C 629.085938 294.726562 630.011719 295.921875 630.578125 297.433594 C 630.835938 298.121094 630.976562 298.859375 631.03125 299.636719 L 614.941406 299.636719 C 615.082031 298.921875 615.261719 298.238281 615.519531 297.621094 C 616.214844 295.984375 617.230469 294.726562 618.578125 293.84375 M 638.734375 296.015625 C 637.980469 294.023438 636.886719 292.246094 635.460938 290.691406 C 634.03125 289.140625 632.300781 287.921875 630.261719 287.039062 C 628.226562 286.15625 625.863281 285.714844 623.175781 285.714844 C 619.941406 285.714844 617.042969 286.496094 614.480469 288.046875 C 611.917969 289.601562 609.882812 291.710938 608.371094 294.378906 C 606.859375 297.046875 606.101562 300.101562 606.101562 303.546875 C 606.101562 306.863281 606.835938 309.886719 608.308594 312.617188 C 609.777344 315.347656 611.84375 317.511719 614.511719 319.105469 C 617.179688 320.703125 620.277344 321.5 623.804688 321.5 C 626.113281 321.5 628.257812 321.144531 630.230469 320.429688 C 632.203125 319.714844 633.90625 318.726562 635.332031 317.46875 C 636.761719 316.210938 637.8125 314.761719 638.484375 313.121094 L 631.804688 309.84375 C 631.050781 311.191406 630.011719 312.261719 628.6875 313.058594 C 627.363281 313.855469 625.757812 314.253906 623.867188 314.253906 C 621.976562 314.253906 620.308594 313.816406 618.859375 312.933594 C 617.410156 312.050781 616.316406 310.800781 615.582031 309.183594 C 615.140625 308.214844 614.882812 307.144531 614.769531 306 L 639.429688 306 C 639.597656 305.496094 639.710938 304.941406 639.777344 304.332031 C 639.839844 303.722656 639.871094 303.105469 639.871094 302.472656 C 639.871094 300.164062 639.492188 298.011719 638.734375 296.015625 "/>
<path fill-rule="nonzero" fill="#ffffff" fill-opacity="1" d="M 662.613281 321.5 C 659.167969 321.5 656.101562 320.710938 653.414062 319.136719 C 650.726562 317.5625 648.59375 315.421875 647.019531 312.710938 C 645.445312 310.003906 644.660156 306.945312 644.660156 303.546875 C 644.660156 300.144531 645.433594 297.097656 646.988281 294.410156 C 648.542969 291.722656 650.675781 289.601562 653.382812 288.046875 C 656.09375 286.492188 659.167969 285.714844 662.613281 285.714844 C 665.050781 285.714844 667.316406 286.148438 669.417969 287.007812 C 671.519531 287.867188 673.335938 289.054688 674.867188 290.566406 C 676.398438 292.078125 677.503906 293.84375 678.175781 295.859375 L 670.929688 299.070312 C 670.300781 297.308594 669.238281 295.910156 667.75 294.882812 C 666.257812 293.851562 664.546875 293.339844 662.613281 293.339844 C 660.808594 293.339844 659.199219 293.769531 657.792969 294.628906 C 656.386719 295.492188 655.285156 296.707031 654.484375 298.285156 C 653.6875 299.859375 653.289062 301.632812 653.289062 303.609375 C 653.289062 305.625 653.6875 307.410156 654.484375 308.964844 C 655.285156 310.519531 656.386719 311.734375 657.792969 312.617188 C 659.199219 313.5 660.808594 313.941406 662.613281 313.941406 C 664.585938 313.941406 666.300781 313.414062 667.75 312.367188 C 669.199219 311.316406 670.257812 309.90625 670.929688 308.144531 L 678.175781 311.421875 C 677.503906 313.351562 676.410156 315.085938 674.898438 316.617188 C 673.386719 318.152344 671.578125 319.347656 669.480469 320.210938 C 667.378906 321.070312 665.09375 321.5 662.613281 321.5 "/>
<path fill-rule="nonzero" fill="#ffffff" fill-opacity="1" d="M 700.035156 321.121094 C 696.171875 321.121094 693.167969 320.0625 691.027344 317.941406 C 688.882812 315.820312 687.8125 312.828125 687.8125 308.964844 L 687.8125 293.84375 L 681.953125 293.84375 L 681.953125 286.472656 L 682.585938 286.472656 C 684.261719 286.472656 685.554688 286.03125 686.457031 285.148438 C 687.363281 284.265625 687.8125 282.984375 687.8125 281.304688 L 687.8125 278.660156 L 696.128906 278.660156 L 696.128906 286.472656 L 704.003906 286.472656 L 704.003906 293.84375 L 696.128906 293.84375 L 696.128906 308.523438 C 696.128906 309.65625 696.328125 310.621094 696.726562 311.421875 C 697.128906 312.21875 697.757812 312.828125 698.617188 313.246094 C 699.480469 313.667969 700.582031 313.875 701.925781 313.875 C 702.21875 313.875 702.566406 313.855469 702.964844 313.816406 C 703.363281 313.773438 703.75 313.730469 704.132812 313.6875 L 704.132812 320.746094 C 703.542969 320.828125 702.871094 320.914062 702.113281 320.996094 C 701.359375 321.082031 700.664062 321.121094 700.035156 321.121094 "/>
<path fill-rule="nonzero" fill="#ffffff" fill-opacity="1" d="M 561.558594 291.921875 C 560.46875 289.96875 558.945312 288.445312 556.992188 287.351562 C 555.039062 286.261719 552.804688 285.714844 550.28125 285.714844 C 547.847656 285.714844 545.714844 286.25 543.890625 287.320312 C 543.46875 287.566406 543.082031 287.847656 542.71875 288.144531 L 540.675781 296.484375 L 540.574219 291.339844 L 540.574219 287.472656 L 540.582031 287.472656 L 540.582031 286.472656 L 532.769531 286.472656 L 532.769531 320.746094 L 541.085938 320.746094 L 541.085938 300.648438 C 541.085938 299.136719 541.378906 297.832031 541.96875 296.738281 C 542.554688 295.648438 543.375 294.808594 544.421875 294.222656 C 545.472656 293.632812 546.671875 293.339844 548.015625 293.339844 C 549.359375 293.339844 550.554688 293.632812 551.605469 294.222656 C 552.65625 294.808594 553.472656 295.648438 554.0625 296.738281 C 554.652344 297.832031 554.945312 299.136719 554.945312 300.648438 L 554.945312 320.746094 L 563.199219 320.746094 L 563.199219 298.695312 C 563.199219 296.132812 562.652344 293.875 561.558594 291.921875 "/>
<path fill-rule="nonzero" fill="#ffffff" fill-opacity="1" d="M 598.921875 291.921875 C 597.828125 289.96875 596.308594 288.445312 594.351562 287.351562 C 592.398438 286.261719 590.164062 285.714844 587.644531 285.714844 C 585.207031 285.714844 583.074219 286.25 581.25 287.320312 C 580.828125 287.570312 580.4375 287.847656 580.070312 288.148438 L 578.03125 296.484375 L 577.925781 291.339844 L 577.925781 287.472656 L 577.941406 287.472656 L 577.941406 286.472656 L 570.128906 286.472656 L 570.128906 320.746094 L 578.445312 320.746094 L 578.445312 300.648438 C 578.445312 299.136719 578.738281 297.832031 579.328125 296.738281 C 579.914062 295.648438 580.734375 294.808594 581.785156 294.222656 C 582.835938 293.632812 584.03125 293.339844 585.375 293.339844 C 586.71875 293.339844 587.914062 293.632812 588.964844 294.222656 C 590.015625 294.808594 590.835938 295.648438 591.421875 296.738281 C 592.011719 297.832031 592.304688 299.136719 592.304688 300.648438 L 592.304688 320.746094 L 600.558594 320.746094 L 600.558594 298.695312 C 600.558594 296.132812 600.011719 293.875 598.921875 291.921875 "/>
<path fill-rule="nonzero" fill="#ffffff" fill-opacity="1" d="M 729.835938 311.042969 C 729.121094 312.34375 728.101562 313.363281 726.78125 314.097656 C 725.457031 314.832031 723.933594 315.199219 722.210938 315.199219 C 720.867188 315.199219 719.742188 314.851562 718.839844 314.160156 C 717.9375 313.46875 717.488281 312.53125 717.488281 311.355469 C 717.488281 310.140625 717.886719 309.160156 718.683594 308.425781 C 719.480469 307.695312 720.699219 307.179688 722.335938 306.886719 L 730.90625 305.363281 L 730.90625 306.820312 C 730.90625 308.332031 730.550781 309.742188 729.835938 311.042969 M 737.425781 291.574219 C 736.230469 289.726562 734.558594 288.289062 732.417969 287.257812 C 730.273438 286.230469 727.796875 285.714844 724.984375 285.714844 C 722.671875 285.714844 720.53125 286.09375 718.558594 286.851562 C 716.582031 287.605469 714.871094 288.644531 713.421875 289.96875 C 711.972656 291.289062 710.914062 292.855469 710.242188 294.660156 L 716.984375 297.9375 C 717.613281 296.425781 718.609375 295.1875 719.976562 294.222656 C 721.339844 293.253906 722.902344 292.773438 724.667969 292.773438 C 726.558594 292.773438 728.070312 293.265625 729.203125 294.253906 C 730.339844 295.238281 730.90625 296.46875 730.90625 297.9375 L 730.90625 299.046875 L 720.761719 300.710938 C 718.074219 301.128906 715.847656 301.84375 714.085938 302.851562 C 712.320312 303.859375 711.007812 305.109375 710.148438 306.601562 C 709.285156 308.09375 708.855469 309.78125 708.855469 311.671875 C 708.855469 313.648438 709.339844 315.378906 710.304688 316.871094 C 711.269531 318.363281 712.644531 319.503906 714.429688 320.300781 C 716.214844 321.101562 718.304688 321.5 720.699219 321.5 C 722.589844 321.5 724.300781 321.25 725.835938 320.742188 C 727.367188 320.242188 728.753906 319.484375 729.992188 318.476562 C 730.070312 318.414062 730.132812 318.328125 730.210938 318.265625 L 731.414062 313.625 L 731.445312 318.769531 L 731.421875 320.742188 L 739.222656 320.742188 L 739.222656 297.9375 C 739.222656 295.542969 738.621094 293.421875 737.425781 291.574219 "/>
<path fill-rule="nonzero" fill="#ffffff" fill-opacity="1" d="M 282.277344 273.054688 L 290.910156 273.054688 L 290.910156 320.820312 L 282.277344 320.820312 Z M 282.277344 273.054688 "/>
<path fill-rule="nonzero" fill="#ffffff" fill-opacity="1" d="M 352.585938 293.84375 C 353.929688 292.960938 355.460938 292.519531 357.1875 292.519531 C 358.992188 292.519531 360.535156 292.960938 361.816406 293.84375 C 363.097656 294.726562 364.019531 295.921875 364.585938 297.433594 C 364.847656 298.121094 364.988281 298.859375 365.042969 299.636719 L 348.953125 299.636719 C 349.089844 298.921875 349.269531 298.238281 349.53125 297.621094 C 350.222656 295.984375 351.242188 294.726562 352.585938 293.84375 M 372.746094 296.015625 C 371.992188 294.023438 370.898438 292.246094 369.472656 290.691406 C 368.042969 289.140625 366.3125 287.921875 364.273438 287.039062 C 362.238281 286.15625 359.875 285.714844 357.1875 285.714844 C 353.953125 285.714844 351.054688 286.496094 348.492188 288.046875 C 345.929688 289.601562 343.890625 291.710938 342.378906 294.378906 C 340.867188 297.046875 340.113281 300.101562 340.113281 303.546875 C 340.113281 306.863281 340.847656 309.886719 342.316406 312.617188 C 343.785156 315.347656 345.855469 317.511719 348.523438 319.105469 C 351.1875 320.703125 354.289062 321.5 357.816406 321.5 C 360.125 321.5 362.265625 321.144531 364.242188 320.429688 C 366.214844 319.714844 367.917969 318.726562 369.34375 317.46875 C 370.773438 316.210938 371.824219 314.761719 372.496094 313.121094 L 365.816406 309.84375 C 365.058594 311.191406 364.019531 312.261719 362.699219 313.058594 C 361.375 313.855469 359.769531 314.253906 357.878906 314.253906 C 355.988281 314.253906 354.320312 313.816406 352.871094 312.933594 C 351.421875 312.050781 350.328125 310.800781 349.59375 309.183594 C 349.152344 308.214844 348.894531 307.144531 348.777344 306 L 373.441406 306 C 373.609375 305.496094 373.722656 304.941406 373.789062 304.332031 C 373.847656 303.722656 373.878906 303.105469 373.878906 302.472656 C 373.878906 300.164062 373.503906 298.011719 372.746094 296.015625 "/>
<path fill-rule="nonzero" fill="#ffffff" fill-opacity="1" d="M 416.46875 273.054688 L 424.785156 273.054688 L 424.785156 320.820312 L 416.46875 320.820312 Z M 416.46875 273.054688 "/>
<path fill-rule="nonzero" fill="#ffffff" fill-opacity="1" d="M 324.394531 308.964844 C 323.574219 310.519531 322.441406 311.734375 320.992188 312.617188 C 319.542969 313.5 317.894531 313.941406 316.046875 313.941406 C 314.195312 313.941406 312.539062 313.5 311.070312 312.617188 C 309.597656 311.734375 308.453125 310.519531 307.632812 308.964844 C 306.816406 307.410156 306.40625 305.625 306.40625 303.605469 C 306.40625 301.632812 306.816406 299.871094 307.632812 298.316406 C 308.453125 296.761719 309.597656 295.542969 311.070312 294.660156 C 312.539062 293.78125 314.195312 293.339844 316.046875 293.339844 C 317.894531 293.339844 319.542969 293.78125 320.992188 294.660156 C 322.441406 295.542969 323.574219 296.761719 324.394531 298.316406 C 325.210938 299.871094 325.621094 301.632812 325.621094 303.605469 C 325.621094 305.625 325.210938 307.410156 324.394531 308.964844 M 325.621094 273.050781 L 325.621094 282.652344 L 329.550781 297.78125 L 325.621094 289.882812 L 325.621094 289.960938 C 324.628906 288.875 323.453125 287.964844 322.0625 287.257812 C 320.023438 286.230469 317.703125 285.714844 315.101562 285.714844 C 311.824219 285.714844 308.882812 286.511719 306.28125 288.109375 C 303.675781 289.707031 301.605469 291.847656 300.074219 294.535156 C 298.542969 297.222656 297.773438 300.25 297.773438 303.605469 C 297.773438 306.925781 298.53125 309.949219 300.042969 312.679688 C 301.554688 315.410156 303.625 317.5625 306.25 319.136719 C 308.875 320.714844 311.84375 321.5 315.164062 321.5 C 317.640625 321.5 319.929688 321.015625 322.03125 320.050781 C 323.652344 319.304688 324.992188 318.277344 326.0625 316.980469 L 326.0625 320.746094 L 333.875 320.746094 L 333.875 273.050781 Z M 325.621094 273.050781 "/>
<path fill-rule="nonzero" fill="#ffffff" fill-opacity="1" d="M 399.523438 311.042969 C 398.808594 312.34375 397.789062 313.363281 396.46875 314.097656 C 395.144531 314.832031 393.621094 315.199219 391.898438 315.199219 C 390.554688 315.199219 389.429688 314.851562 388.527344 314.160156 C 387.625 313.46875 387.175781 312.53125 387.175781 311.355469 C 387.175781 310.140625 387.574219 309.160156 388.371094 308.425781 C 389.167969 307.695312 390.386719 307.179688 392.023438 306.886719 L 400.59375 305.363281 L 400.59375 306.820312 C 400.59375 308.332031 400.238281 309.742188 399.523438 311.042969 M 407.113281 291.574219 C 405.917969 289.726562 404.246094 288.289062 402.105469 287.257812 C 399.960938 286.230469 397.484375 285.714844 394.671875 285.714844 C 392.359375 285.714844 390.21875 286.09375 388.246094 286.851562 C 386.269531 287.605469 384.558594 288.644531 383.109375 289.96875 C 381.660156 291.289062 380.601562 292.855469 379.929688 294.660156 L 386.671875 297.9375 C 387.300781 296.425781 388.296875 295.1875 389.660156 294.222656 C 391.027344 293.253906 392.589844 292.773438 394.355469 292.773438 C 396.246094 292.773438 397.757812 293.265625 398.890625 294.253906 C 400.027344 295.238281 400.59375 296.46875 400.59375 297.9375 L 400.59375 299.046875 L 390.449219 300.710938 C 387.761719 301.128906 385.535156 301.84375 383.773438 302.851562 C 382.007812 303.859375 380.695312 305.109375 379.835938 306.601562 C 378.972656 308.09375 378.542969 309.78125 378.542969 311.671875 C 378.542969 313.648438 379.027344 315.378906 379.992188 316.871094 C 380.957031 318.363281 382.332031 319.503906 384.117188 320.300781 C 385.902344 321.101562 387.992188 321.5 390.386719 321.5 C 392.277344 321.5 393.988281 321.25 395.523438 320.742188 C 397.054688 320.242188 398.441406 319.484375 399.679688 318.476562 C 399.75 318.417969 399.804688 318.347656 399.875 318.289062 L 401.09375 313.589844 L 401.125 318.734375 L 401.097656 320.742188 L 408.910156 320.742188 L 408.910156 297.9375 C 408.910156 295.542969 408.308594 293.421875 407.113281 291.574219 "/>
</svg>
